<svg width="22" height="18" viewBox="0 0 22 18" fill="none" xmlns="http://www.w3.org/2000/svg">
<path d="M13.707 17.7074C13.5184 17.8896 13.2658 17.9904 13.0036 17.9881C12.7414 17.9858 12.4906 17.8806 12.3052 17.6952C12.1198 17.5098 12.0146 17.259 12.0123 16.9968C12.01 16.7346 12.1108 16.482 12.293 16.2934L18.586 10.0004H1C0.734784 10.0004 0.48043 9.89505 0.292893 9.70751C0.105357 9.51998 0 9.26562 0 9.00041C0 8.73519 0.105357 8.48084 0.292893 8.2933C0.48043 8.10576 0.734784 8.00041 1 8.00041H18.586L12.293 1.70741C12.1108 1.5188 12.01 1.2662 12.0123 1.00401C12.0146 0.741809 12.1198 0.490997 12.3052 0.305589C12.4906 0.12018 12.7414 0.0150115 13.0036 0.0127331C13.2658 0.0104547 13.5184 0.111249 13.707 0.293407L21.707 8.29341C21.7996 8.38651 21.873 8.49694 21.923 8.61841C21.9738 8.73935 22 8.86922 22 9.00041C22 9.1316 21.9738 9.26146 21.923 9.38241C21.873 9.50387 21.7996 9.61431 21.707 9.70741L13.707 17.7074Z" fill="black"/>
</svg>
