<svg width="89" height="32" viewBox="0 0 89 32" fill="none" xmlns="http://www.w3.org/2000/svg">
<path fill-rule="evenodd" clip-rule="evenodd" d="M27.089 26.821H21.0572L16.5341 8.97829C16.3194 8.15752 15.8635 7.43192 15.193 7.08993C13.5196 6.23051 11.6757 5.54653 9.66406 5.20157V4.51463H19.3809C20.7219 4.51463 21.7277 5.54653 21.8954 6.74497L24.2422 19.6155L30.2711 4.51463H36.1353L27.089 26.821ZM39.4893 26.821H33.7928L38.4835 4.51463H44.1801L39.4893 26.821ZM51.5505 10.694C51.7182 9.49259 52.724 8.80565 53.8974 8.80565C55.7413 8.63317 57.75 8.97813 59.4263 9.83458L60.4321 5.03191C58.7558 4.34496 56.9118 4 55.2384 4C49.7095 4 45.6863 7.08977 45.6863 11.378C45.6863 14.6402 48.5361 16.3531 50.5477 17.385C52.724 18.414 53.5621 19.1009 53.3945 20.1298C53.3945 21.6732 51.7182 22.3602 50.0448 22.3602C48.0332 22.3602 46.0216 21.8457 44.1806 20.9863L43.1748 25.7919C45.1864 26.6484 47.3627 26.9934 49.3742 26.9934C55.5737 27.1629 59.4263 24.0761 59.4263 19.4429C59.4263 13.6083 51.5505 13.2663 51.5505 10.694ZM79.3647 26.821L74.8416 4.51463H69.9832C68.9774 4.51463 67.9716 5.20157 67.6363 6.23051L59.2606 26.821H65.1248L66.2953 23.5618H73.5005L74.1711 26.821H79.3647ZM70.8168 10.5217L72.4902 18.9286H67.7995L70.8168 10.5217Z" fill="#172B85"/>
</svg>
