<svg width="89" height="32" viewBox="0 0 89 32" fill="none" xmlns="http://www.w3.org/2000/svg">
<g clip-path="url(#clip0_502_2793)">
<path fill-rule="evenodd" clip-rule="evenodd" d="M10.9089 4H4.05589C3.58688 4 3.18804 4.35753 3.11479 4.84347L0.343106 23.2821C0.288094 23.6461 0.556701 23.9739 0.908389 23.9739H4.17995C4.64896 23.9739 5.0478 23.6166 5.12106 23.1298L5.8685 18.1565C5.94063 17.6696 6.34032 17.3121 6.80849 17.3121H8.97783C13.492 17.3121 16.0972 15.0199 16.7778 10.478C17.0843 8.49067 16.7907 6.92948 15.9038 5.83597C14.9299 4.63526 13.2023 4 10.9089 4ZM11.6996 10.7345C11.3249 13.3147 9.446 13.3147 7.62947 13.3147H6.59518L7.32072 8.49593C7.36395 8.20466 7.60421 7.99026 7.88488 7.99026H8.35895C9.59645 7.99026 10.7638 7.99026 11.367 8.73036C11.7268 9.17183 11.8368 9.82799 11.6996 10.7345Z" fill="#28356A"/>
<path fill-rule="evenodd" clip-rule="evenodd" d="M31.5684 10.5119H28.2868C28.0072 10.5119 27.7656 10.7264 27.7226 11.0176L27.5772 11.9807L27.3479 11.6317C26.6375 10.5496 25.0531 10.188 23.4721 10.188C19.8454 10.188 16.7482 13.0701 16.145 17.1128C15.8315 19.1293 16.2772 21.0577 17.3676 22.4025C18.3677 23.6388 19.7986 24.1542 21.5009 24.1542C24.423 24.1542 26.0431 22.1828 26.0431 22.1828L25.8968 23.1396C25.8418 23.5054 26.1104 23.8335 26.4601 23.8335H29.4159C29.8861 23.8335 30.283 23.4759 30.357 22.9891L32.1306 11.2038C32.1868 10.8409 31.919 10.5119 31.5684 10.5119ZM26.9927 17.2138C26.6761 19.1808 25.1882 20.5014 23.2903 20.5014C22.3374 20.5014 21.5759 20.1806 21.0867 19.5731C20.6017 18.9696 20.4176 18.1105 20.5716 17.1537C20.8675 15.2034 22.3803 13.8396 24.2494 13.8396C25.1812 13.8396 25.9387 14.1647 26.4378 14.7773C26.9377 15.3966 27.1361 16.261 26.9927 17.2138Z" fill="#28356A"/>
<path fill-rule="evenodd" clip-rule="evenodd" d="M48.7899 10.8069H45.492C45.1773 10.8069 44.8818 10.9709 44.7035 11.2454L40.1552 18.275L38.2272 11.5196C38.106 11.097 37.7344 10.8069 37.3133 10.8069H34.0729C33.6789 10.8069 33.4055 11.2107 33.5307 11.5997L37.1632 22.7846L33.7482 27.843C33.4796 28.2415 33.7502 28.7893 34.2141 28.7893H37.5078C37.8205 28.7893 38.113 28.6294 38.2904 28.3605L49.2586 11.7478C49.5214 11.3505 49.2516 10.8069 48.7899 10.8069Z" fill="#28356A"/>
<path fill-rule="evenodd" clip-rule="evenodd" d="M59.7758 4H52.922C52.4541 4 52.0552 4.35753 51.982 4.84347L49.2103 23.2821C49.1553 23.6461 49.4239 23.9739 49.7736 23.9739H53.2908C53.6172 23.9739 53.8967 23.7239 53.9478 23.3831L54.7346 18.1565C54.8067 17.6696 55.2067 17.3121 55.6746 17.3121H57.8431C62.358 17.3121 64.9624 15.0199 65.6439 10.478C65.9515 8.49067 65.656 6.92948 64.769 5.83597C63.7959 4.63526 62.0695 4 59.7758 4ZM60.5656 10.7345C60.1918 13.3147 58.3129 13.3147 56.4953 13.3147H55.4624L56.1888 8.49593C56.2317 8.20466 56.4703 7.99026 56.7518 7.99026H57.2259C58.4622 7.99026 59.6307 7.99026 60.2339 8.73036C60.5937 9.17183 60.7029 9.82799 60.5656 10.7345Z" fill="#298FC2"/>
<path fill-rule="evenodd" clip-rule="evenodd" d="M80.4468 10.5119H77.1671C76.8856 10.5119 76.6462 10.7264 76.6041 11.0176L76.4587 11.9807L76.2283 11.6317C75.5179 10.5496 73.9346 10.188 72.3533 10.188C68.7269 10.188 65.6308 13.0701 65.0276 17.1128C64.7149 19.1293 65.1587 21.0577 66.2488 22.4025C67.2511 23.6388 68.6798 24.1542 70.3824 24.1542C73.3042 24.1542 74.9245 22.1828 74.9245 22.1828L74.7783 23.1396C74.7233 23.5054 74.9916 23.8335 75.3436 23.8335H78.2985C78.7664 23.8335 79.1653 23.4759 79.2385 22.9891L81.013 11.2038C81.0671 10.8409 80.7985 10.5119 80.4468 10.5119ZM75.875 17.2138C75.5604 19.1808 74.0702 20.5014 72.1723 20.5014C71.2214 20.5014 70.4579 20.1807 69.9687 19.5731C69.484 18.9696 69.3016 18.1106 69.4537 17.1537C69.7515 15.2035 71.2624 13.8396 73.1314 13.8396C74.0632 13.8396 74.8208 14.1647 75.3198 14.7773C75.8217 15.3967 76.0201 16.261 75.875 17.2138Z" fill="#298FC2"/>
<path fill-rule="evenodd" clip-rule="evenodd" d="M84.0386 4.50685L81.2259 23.283C81.1709 23.647 81.4392 23.9748 81.789 23.9748H84.6168C85.0869 23.9748 85.4855 23.6175 85.5576 23.1307L88.3313 4.69298C88.3865 4.32897 88.1179 4 87.7682 4H84.6019C84.3223 4.00088 84.0818 4.21558 84.0386 4.50685Z" fill="#298FC2"/>
</g>
<defs>
<clipPath id="clip0_502_2793">
<rect width="88" height="32" fill="white" transform="translate(0.335938)"/>
</clipPath>
</defs>
</svg>
