<svg width="88" height="32" viewBox="0 0 88 32" fill="none" xmlns="http://www.w3.org/2000/svg">
<g clip-path="url(#clip0_502_2809)">
<path fill-rule="evenodd" clip-rule="evenodd" d="M50.815 0C51.0994 0.0653161 51.3838 0.16329 51.6682 0.206834C52.8478 0.402783 53.7958 1.05594 54.6068 1.91594C54.8069 2.12277 55.007 2.53644 54.9228 2.75416C54.828 2.99366 54.4488 3.22226 54.1644 3.26581C51.5102 3.66859 48.9297 4.38707 46.4545 5.44301C45.0221 6.05263 43.6213 6.79288 42.252 7.54401C39.2713 9.19869 36.8488 11.5827 34.479 14.0321C31.9722 16.623 29.634 19.3662 27.5906 22.3599C26.3162 24.2214 25.126 26.1482 23.9885 28.1077C23.4197 29.0874 23.0511 30.1869 22.5877 31.232C22.5139 31.3844 22.3559 31.6565 22.3033 31.6348C22.1032 31.5695 21.8082 31.4497 21.7556 31.2864C21.6292 30.8836 21.5028 30.4155 21.5765 30.0128C21.9768 27.8247 22.8615 25.8108 23.841 23.8404C25.7474 20.0303 28.1383 16.5576 30.9295 13.4007C32.5199 11.6045 34.163 9.85185 35.8587 8.1754C38.4076 5.63896 41.2514 3.49441 44.4218 1.83974C45.8858 1.07772 47.4025 0.500757 49.014 0.185062C49.2878 0.130632 49.5511 0.0653161 49.8145 0.010886C50.162 0 50.4885 0 50.815 0Z" fill="#F78223"/>
<path fill-rule="evenodd" clip-rule="evenodd" d="M0 24.3193C0.147457 23.5028 0.263315 22.7517 0.410772 22.0006C1.16912 17.8748 1.938 13.7598 2.69635 9.63404C2.74901 9.37278 2.82274 9.1986 3.07552 9.15506C5.04512 8.85025 7.02525 8.63253 8.99485 9.14417C10.7117 9.57961 11.9124 10.8315 12.1125 12.3011C12.5233 15.2295 10.8697 17.57 8.41556 18.4082C7.12004 18.8436 5.80347 18.9525 4.46583 18.8218C4.14985 18.7892 4.05506 18.8763 4.00239 19.192C3.71801 20.7922 3.4231 22.3816 3.11765 23.9709C3.09659 24.1016 2.98073 24.3084 2.907 24.3084C1.94853 24.3302 1.01113 24.3193 0 24.3193ZM4.53382 16.2311C5.17631 16.2311 5.75561 16.2855 6.31384 16.2202C7.40923 16.1005 8.28343 15.5888 8.77847 14.5111C9.3367 13.2919 8.93646 11.9965 7.88319 11.6154C7.13538 11.3433 6.3665 11.3977 5.59762 11.5066C5.50283 11.5175 5.37643 11.6699 5.35537 11.7678C5.09205 13.1939 4.82874 14.6309 4.53382 16.2311Z" fill="#D2D2D2"/>
<path fill-rule="evenodd" clip-rule="evenodd" d="M18.6743 22.2292C18.1477 22.7953 17.7264 23.3722 17.1892 23.7968C16.0833 24.6786 14.8194 24.8745 13.545 24.2649C12.281 23.6662 11.7649 22.5014 11.7123 21.1297C11.5964 18.2449 12.5759 15.8609 14.9247 14.2062C16.3993 13.1611 18.095 12.8455 19.854 12.9434C20.7493 12.9979 21.634 13.2156 22.5293 13.3462C22.8874 13.4006 22.94 13.6075 22.8768 13.9232C22.4766 16.0786 22.0553 18.2231 21.7183 20.3786C21.5392 21.5216 21.4865 22.6973 21.4128 23.8512C21.3917 24.1996 21.3075 24.3411 20.9599 24.3302C20.3069 24.3084 19.6539 24.3084 19.0008 24.3302C18.6638 24.3411 18.5479 24.2105 18.5795 23.873C18.6217 23.3505 18.6427 22.8062 18.6743 22.2292ZM19.4106 15.5016C18.3889 15.2077 17.5358 15.4145 16.8196 16.035C15.4714 17.2107 14.8605 18.7348 14.9764 20.5527C15.008 21.1079 15.2186 21.6413 15.7874 21.8808C16.3562 22.1203 16.8723 21.9461 17.3146 21.5542C17.5779 21.3147 17.8307 21.0426 18.0203 20.7378C19.0209 19.1593 19.042 17.3087 19.4106 15.5016Z" fill="#D2D2D2"/>
<path fill-rule="evenodd" clip-rule="evenodd" d="M39.2934 24.5807C36.5023 24.5807 34.9118 23.5139 34.3325 21.5979C33.3741 18.441 35.2173 13.5096 39.7252 12.9871C41.0734 12.8347 42.3373 13.0089 43.4433 13.858C44.4965 14.6635 45.0126 15.7957 45.0863 17.1347C45.1706 18.5281 44.9389 19.8562 44.3069 21.0972C43.1167 23.405 41.2103 24.5263 39.2934 24.5807ZM37.3346 19.8344C37.3346 19.9977 37.324 20.1719 37.3346 20.3352C37.4188 21.4782 38.2088 22.2076 39.2515 22.1096C39.8308 22.0552 40.2837 21.7395 40.6418 21.2823C41.5792 20.0521 41.9373 18.637 41.8109 17.102C41.7056 15.8501 40.7893 15.1861 39.6728 15.4474C39.1251 15.578 38.7144 15.9263 38.3878 16.3836C37.6611 17.4177 37.3662 18.5825 37.3346 19.8344Z" fill="#D2D2D2"/>
<path fill-rule="evenodd" clip-rule="evenodd" d="M47.6028 13.2157C48.498 13.2157 49.3512 13.2157 50.278 13.2157C50.2359 13.8036 50.1938 14.3696 50.1411 14.9466C50.4466 14.6527 50.7204 14.3696 51.0048 14.1193C52.0475 13.1831 53.2377 12.7694 54.6175 12.998C55.755 13.1939 56.5449 14.0539 56.6713 15.2623C56.8188 16.6122 56.5449 17.9185 56.3027 19.2248C56.0078 20.8033 55.7234 22.3817 55.418 23.9493C55.3864 24.0908 55.2284 24.2977 55.123 24.3086C54.2172 24.3303 53.3114 24.3195 52.4056 24.3086C52.3635 24.3086 52.3214 24.2759 52.2371 24.2324C52.4056 23.3288 52.5742 22.4144 52.7321 21.5C52.9744 20.0957 53.2061 18.7023 53.4168 17.298C53.4589 17.0585 53.4378 16.8081 53.4062 16.5686C53.322 15.7304 52.7216 15.3494 51.9422 15.5998C51.1838 15.8501 50.7309 16.4598 50.3623 17.1347C49.8146 18.1253 49.625 19.2248 49.4354 20.3243C49.2248 21.5326 49.0247 22.7301 48.7929 23.9384C48.7613 24.08 48.6034 24.2977 48.498 24.3086C47.5712 24.3412 46.6338 24.3303 45.6016 24.3303C46.2967 20.5856 46.9497 16.917 47.6028 13.2157Z" fill="#D2D2D2"/>
<path fill-rule="evenodd" clip-rule="evenodd" d="M60.9929 19.9651C60.9191 21.0973 61.667 21.9028 62.7834 22.0443C63.8683 22.175 64.911 22.0008 65.9221 21.598C66.0275 21.5545 66.1433 21.5109 66.2592 21.4674C66.2802 21.4565 66.3118 21.4674 66.3961 21.4674C66.4593 22.1314 66.533 22.7955 66.5646 23.4595C66.5752 23.5902 66.4277 23.797 66.3013 23.8514C64.5424 24.5917 62.7202 24.8529 60.8665 24.3631C59.1391 23.9059 58.1912 22.6213 58.0016 20.8251C57.7278 18.2887 58.444 16.0679 60.3504 14.3915C61.9197 13.009 63.7629 12.5735 65.7641 13.194C67.1018 13.6077 67.8496 14.6419 67.9444 16.0679C68.0392 17.4722 67.4494 18.5499 66.1854 19.2031C65.1954 19.7147 64.1316 19.8998 63.0467 19.9651C62.3726 19.9978 61.688 19.9651 60.9929 19.9651ZM61.2974 17.6028C62.1084 17.777 63.7726 17.5702 64.4151 17.2218C64.8574 16.9823 65.0786 16.6013 65.0049 16.1441C64.9312 15.676 64.6257 15.4474 64.2044 15.3385C62.951 15.0228 61.4659 16.155 61.2974 17.6028Z" fill="#D2D2D2"/>
<path fill-rule="evenodd" clip-rule="evenodd" d="M71.5126 20.0085C71.4178 21.0753 72.1551 21.8918 73.2821 22.0442C74.3354 22.1748 75.3465 22.0115 76.3365 21.6414C76.5051 21.5761 76.6631 21.5108 76.8842 21.4237C76.9474 22.1313 77.0317 22.7953 77.0633 23.4594C77.0738 23.59 76.9264 23.7968 76.8105 23.8513C75.02 24.6133 73.1768 24.8745 71.2914 24.3411C69.5957 23.8621 68.7109 22.5885 68.5003 20.8467C68.237 18.6151 68.7952 16.6012 70.3014 14.9465C71.9234 13.1721 73.914 12.5407 76.2102 13.1938C77.611 13.5966 78.3588 14.6417 78.4431 16.1113C78.5273 17.5483 77.8954 18.626 76.5788 19.2574C75.2517 19.8887 73.8403 19.9867 72.4079 20.0194C72.1235 20.0085 71.8286 20.0085 71.5126 20.0085ZM71.8205 17.6898C72.4946 17.6463 73.1265 17.6354 73.748 17.5483C74.1693 17.4938 74.5906 17.3632 74.9697 17.1782C75.3805 16.9931 75.5806 16.6012 75.5174 16.1222C75.4542 15.665 75.1593 15.4473 74.7486 15.3384C73.5057 14.9901 71.9574 16.1658 71.8205 17.6898Z" fill="#D2D2D2"/>
<path fill-rule="evenodd" clip-rule="evenodd" d="M78.625 24.3194C78.7619 23.5138 78.8883 22.7845 79.0252 22.0442C79.5729 19.2247 80.1312 16.4052 80.3629 13.5205C80.3734 13.4007 80.5314 13.2048 80.6157 13.1939C81.4161 13.1721 82.2166 13.183 83.0803 13.183C83.0171 13.9559 82.9644 14.6853 82.9118 15.4037C83.8808 13.9341 84.9972 12.7367 86.9984 12.9544C86.7983 13.9886 86.6298 14.9465 86.4297 15.8936C86.4086 15.9698 86.2717 16.0678 86.1874 16.0787C84.1125 16.3617 83.2383 17.1237 82.7222 19.3227C82.3641 20.8467 82.1218 22.4143 81.8164 23.9601C81.7953 24.0908 81.6795 24.2976 81.6057 24.2976C80.6367 24.3303 79.6677 24.3194 78.625 24.3194Z" fill="#D2D2D2"/>
<path fill-rule="evenodd" clip-rule="evenodd" d="M27.8122 10.5268C27.7806 12.0508 27.5279 13.5204 27.0223 14.9356C26.9696 15.088 26.8643 15.2187 26.759 15.3493C26.5273 15.665 26.2745 15.6976 26.0954 15.3493C25.8637 14.8921 25.6741 14.4022 25.5583 13.9123C25.2212 12.3774 24.9052 10.8316 24.6209 9.2749C24.2522 7.29364 23.9257 5.3015 23.5887 3.32025C23.536 3.03721 23.5149 2.74329 23.4939 2.46025C23.4728 2.13367 23.6519 1.97038 23.9257 2.07924C24.1996 2.17721 24.4734 2.3405 24.6735 2.54734C26.3482 4.38708 27.4015 6.53162 27.6858 9.05718C27.749 9.54705 27.7701 10.0369 27.8122 10.5268Z" fill="#F78223"/>
</g>
<defs>
<clipPath id="clip0_502_2809">
<rect width="88" height="32" fill="white"/>
</clipPath>
</defs>
</svg>
