<svg width="16" height="16" viewBox="0 0 16 16" fill="none" xmlns="http://www.w3.org/2000/svg">
<path d="M15.8406 4.42812C15.8406 4.42812 15.6844 3.325 15.2031 2.84062C14.5938 2.20313 13.9125 2.2 13.6 2.1625C11.3625 2 8.00313 2 8.00313 2H7.99687C7.99687 2 4.6375 2 2.4 2.1625C2.0875 2.2 1.40625 2.20313 0.796875 2.84062C0.315625 3.325 0.1625 4.42812 0.1625 4.42812C0.1625 4.42812 0 5.725 0 7.01875V8.23125C0 9.525 0.159375 10.8219 0.159375 10.8219C0.159375 10.8219 0.315625 11.925 0.79375 12.4094C1.40313 13.0469 2.20313 13.025 2.55938 13.0937C3.84063 13.2156 8 13.2531 8 13.2531C8 13.2531 11.3625 13.2469 13.6 13.0875C13.9125 13.05 14.5938 13.0469 15.2031 12.4094C15.6844 11.925 15.8406 10.8219 15.8406 10.8219C15.8406 10.8219 16 9.52812 16 8.23125V7.01875C16 5.725 15.8406 4.42812 15.8406 4.42812ZM6.34688 9.70312V5.20625L10.6687 7.4625L6.34688 9.70312Z" fill="white"/>
</svg>
